<svg id="Capa_1" enable-background="new 0 0 512 512" height="512" viewBox="0 0 512 512" width="512" xmlns="http://www.w3.org/2000/svg"><g><path d="m256 512c-68.38 0-132.667-26.629-181.02-74.98-48.351-48.353-74.98-112.64-74.98-181.02s26.629-132.667 74.98-181.02c48.353-48.351 112.64-74.98 181.02-74.98 56.773 0 110.548 18.199 155.51 52.63 3.289 2.519 3.913 7.226 1.395 10.515s-7.225 3.914-10.515 1.395c-42.321-32.41-92.942-49.54-146.39-49.54-64.374 0-124.894 25.068-170.413 70.587s-70.587 106.039-70.587 170.413 25.068 124.894 70.587 170.413 106.039 70.587 170.413 70.587 124.894-25.068 170.413-70.587 70.587-106.039 70.587-170.413c0-33.418-6.708-65.766-19.939-96.144-12.782-29.348-31.028-55.517-54.231-77.779-2.989-2.868-3.087-7.615-.219-10.604s7.616-3.087 10.604-.219c24.641 23.643 44.02 51.438 57.599 82.613 14.058 32.279 21.186 66.641 21.186 102.133 0 68.38-26.629 132.667-74.98 181.02-48.353 48.351-112.64 74.98-181.02 74.98zm-40.044-45.832c-16.103 0-29.769-10.636-34.341-25.251-5.555 1.516-11.432 1.671-17.213.391-9.381-2.077-17.392-7.683-22.557-15.786-1.431-2.245-2.583-4.597-3.447-7.032-23.977-3.378-42.021-22.291-50.125-53.022-1.056-4.005 1.334-8.108 5.34-9.164 4.005-1.056 8.108 1.334 9.164 5.34 9.699 36.781 31.341 42.348 43.379 42.393h.147c12.065 0 33.611-5.51 43.547-42.07 2.747-10.108 8.865-20.42 15.95-32.362 10.995-18.531 23.408-39.454 25.217-64.029-10.107-11.298-13.19-25.828-8.185-38.452-14.049-25.604-43.461-42.061-75.861-42.182-.122 0-.246-.001-.368-.001-22.605 0-43.833 7.774-59.811 21.913-15.82 13.998-24.573 32.579-24.646 52.321-.101 27.088 13.192 49.878 24.92 69.985 1.029 1.764 2.041 3.5 3.026 5.207 2.07 3.588.839 8.175-2.749 10.245-3.589 2.069-8.174.839-10.245-2.749-.973-1.688-1.974-3.402-2.99-5.146-12.064-20.684-27.079-46.425-26.963-77.599.089-24.077 10.639-46.628 29.706-63.499 6.584-5.826 13.913-10.729 21.792-14.639-5.875-30.245 11.729-60.288 40.854-70.018 2.673-9.289 7.492-17.822 14.089-24.893 2.827-3.029 7.572-3.192 10.601-.368 3.028 2.826 3.193 7.572.367 10.601-5.768 6.182-9.737 13.85-11.478 22.175-.586 2.804-2.719 5.029-5.495 5.734-23.004 5.843-37.639 28.001-34.687 50.974 10.673-3.449 22.042-5.246 33.708-5.246.142 0 .282 0 .423.001 35.192.131 67.495 17.02 85.232 43.805 9.057-8.033 21.662-10.969 33.313-7.812 4.569-14.622 18.238-25.264 34.346-25.264 16.103 0 29.769 10.635 34.341 25.25 5.554-1.516 11.429-1.671 17.211-.393 9.381 2.077 17.393 7.682 22.559 15.784.596.935 1.14 1.886 1.635 2.852 1.518-1.644 3.042-3.378 4.582-5.214 13.356-15.923 33.543-20.122 49.091-10.209.475.302.94.614 1.397.936 7.674-24.384-.895-47.997-22.335-58.483-2.573-1.258-4.205-3.873-4.205-6.737 0-25.644-20.863-46.507-46.507-46.507-2.864 0-5.479-1.631-6.737-4.205-11.267-23.036-39.174-32.612-62.211-21.345-2.571 1.26-5.638.942-7.899-.817-20.243-15.745-49.521-12.083-65.263 8.158-1.759 2.261-4.65 3.325-7.456 2.737-7.975-1.669-16.253-1.219-23.944 1.299-3.933 1.288-8.172-.857-9.461-4.794-1.289-3.936.858-8.172 4.794-9.461 8.736-2.861 18.042-3.707 27.167-2.496 20.354-22.528 54.384-26.784 79.657-9.959 28.184-11.293 60.62-.165 75.93 26.052 30.276 2.236 54.524 26.488 56.763 56.763 13.038 7.614 22.497 19.583 26.858 34.125 4.554 15.185 3.138 32.265-3.957 48.46 1.429 2.757 2.506 5.719 3.196 8.833 1.28 5.782 1.126 11.658-.391 17.213 14.615 4.573 25.251 18.238 25.251 34.341s-10.635 29.769-25.25 34.341c1.517 5.554 1.672 11.43.392 17.212-2.077 9.381-7.682 17.393-15.784 22.559-7.997 5.098-17.219 6.464-26.108 4.424-2.757 8.512-8.622 15.72-16.364 20.163 7.112 13.571 4.973 30.765-6.418 42.156-11.388 11.388-28.57 13.529-42.139 6.428-2.855 5-6.9 9.264-11.895 12.447-8.103 5.164-17.732 6.864-27.113 4.788-7.675-1.7-14.193-5.744-18.998-11.672-8.677 6.032-19.712 7.997-30.006 5.207-4.567 14.621-18.236 25.263-34.343 25.263zm113.77-141.674c8.448 3.24 14.443 11.431 14.443 21.019 0 12.426-10.074 22.5-22.5 22.5s-22.5-10.074-22.5-22.5c0-8.382 4.582-15.694 11.379-19.566 2.885-1.862 5.194-5.682 6.366-10.552 1.871-7.772 4.685-15.167 8.48-22.246-9.902-2.359-17.267-11.26-17.267-21.884 0-12.426 10.074-22.5 22.5-22.5 8.994 0 16.757 5.277 20.358 12.904 1.042-.923 2.109-1.843 3.197-2.755 8.441-7.081 13.94-18.96 7.197-29.537-3.011-4.723-7.682-7.991-13.151-9.202-5.473-1.213-11.084-.219-15.807 2.793-2.309 1.472-5.236 1.568-7.638.252-2.401-1.317-3.894-3.838-3.894-6.576 0-11.564-9.408-20.973-20.973-20.973s-20.973 9.408-20.973 20.973c0 2.738-1.493 5.259-3.894 6.576s-5.329 1.221-7.638-.252c-9.751-6.216-22.743-3.34-28.958 6.412-6.742 10.576-1.241 22.455 7.201 29.536 19.958 16.741 32.146 35.216 37.264 56.479.908 3.775 2.672 6.875 5.243 9.215 3.063 2.788 3.286 7.532.498 10.595-2.789 3.064-7.532 3.286-10.595.498-4.764-4.336-8.128-10.145-9.73-16.798-4.407-18.314-14.428-31.48-23.863-40.831-2.059 10.88-5.737 21.002-10.065 30.375 6.506 4.457 11.151 11.262 13.13 19.485 2.731 11.351 8.013 22.021 15.697 31.712 2.573 3.246 2.028 7.963-1.217 10.537s-7.963 2.028-10.537-1.217c-9.048-11.413-15.282-24.037-18.527-37.522-.928-3.859-2.809-7.064-5.458-9.402-2.945 5.358-5.955 10.431-8.794 15.217-1.741 2.933-3.417 5.759-4.983 8.482 5.199.489 10.023 2.75 13.762 6.49 8.773 8.772 8.773 23.047 0 31.82-8.344 8.343-21.664 8.752-30.494 1.224-9.515 18.714-24.048 30.262-41.886 33.084 3.014 4.239 7.43 7.171 12.545 8.304 5.471 1.211 11.083.218 15.808-2.792 1.226-.782 2.627-1.176 4.032-1.176 1.239 0 2.48.307 3.606.924 2.401 1.316 3.894 3.837 3.894 6.576 0 11.564 9.408 20.973 20.973 20.973 11.564 0 20.972-9.408 20.972-20.973 0-2.738 1.493-5.259 3.894-6.576 2.402-1.316 5.33-1.219 7.638.252 9.751 6.218 22.743 3.342 28.959-6.409 6.744-10.577 1.245-22.457-7.197-29.537-3.174-2.662-3.588-7.393-.926-10.566 2.662-3.174 7.393-3.588 10.566-.926 15.576 13.065 19.931 32.666 10.834 48.069 2.25 3.453 5.921 6.909 11.852 8.222 5.468 1.212 11.083.22 15.807-2.791s7.992-7.682 9.203-13.151c.592-2.674 2.594-4.813 5.223-5.579 2.628-.766 5.466-.039 7.403 1.897 8.177 8.177 21.482 8.177 29.66 0 8.177-8.177 8.177-21.483 0-29.66-1.937-1.937-2.664-4.774-1.897-7.403s2.906-4.631 5.58-5.223c7.944-1.758 14.053-7.937 15.882-15.634-3.282-2.281-6.37-5.096-9.16-8.422-6.004-7.157-15.595-17.541-29.5-25.042-3.646-1.966-5.007-6.516-3.041-10.161s6.513-5.007 10.162-3.041c16.17 8.723 27.075 20.502 33.871 28.604 7.081 8.442 18.958 13.941 29.537 7.198 9.751-6.217 12.626-19.208 6.409-28.959-1.472-2.309-1.569-5.237-.252-7.638s3.838-3.894 6.576-3.894c11.564 0 20.973-9.408 20.973-20.973 0-11.564-9.408-20.972-20.973-20.972-2.738 0-5.259-1.493-6.576-3.894s-1.221-5.329.251-7.638c3.011-4.724 4.002-10.338 2.792-15.807-1.211-5.47-4.479-10.14-9.204-13.151-10.576-6.743-22.455-1.242-29.537 7.2-4.169 4.97-8.263 9.3-12.45 13.164-.677 10.359-5.998 20.712-15.464 28.652-11.108 9.318-26.544 24.483-32.324 48.5-.472 1.955-1.067 3.825-1.774 5.588zm-8.057 13.519c-4.142 0-7.5 3.358-7.5 7.5s3.358 7.5 7.5 7.5 7.5-3.358 7.5-7.5-3.357-7.5-7.5-7.5zm-110.099 22.628c-4.142 0-7.5 3.358-7.5 7.5s3.358 7.5 7.5 7.5 7.5-3.358 7.5-7.5-3.358-7.5-7.5-7.5zm119.058-96.876c-4.142 0-7.5 3.358-7.5 7.5s3.358 7.5 7.5 7.5 7.5-3.358 7.5-7.5-3.358-7.5-7.5-7.5zm65.751-85.836c0 12.426-10.074 22.5-22.5 22.5s-22.5-10.074-22.5-22.5 10.074-22.5 22.5-22.5c12.427 0 22.5 10.073 22.5 22.5zm-22.5-7.5c-4.142 0-7.5 3.358-7.5 7.5s3.358 7.5 7.5 7.5 7.5-3.358 7.5-7.5-3.357-7.5-7.5-7.5zm-109.021.428c0 12.426-10.074 22.5-22.5 22.5s-22.5-10.074-22.5-22.5 10.074-22.5 22.5-22.5 22.5 10.074 22.5 22.5zm-22.5-7.5c-4.142 0-7.5 3.358-7.5 7.5s3.358 7.5 7.5 7.5 7.5-3.358 7.5-7.5-3.358-7.5-7.5-7.5zm-69.589 183.374h-47.022c-4.142 0-7.5-3.358-7.5-7.5s3.358-7.5 7.5-7.5h47.022c4.142 0 7.5 3.358 7.5 7.5s-3.358 7.5-7.5 7.5zm25.304-54.404h-102.599c-4.142 0-7.5-3.358-7.5-7.5s3.358-7.5 7.5-7.5h102.599c4.142 0 7.5 3.358 7.5 7.5s-3.358 7.5-7.5 7.5zm-8.349-51.848h-86.999c-4.142 0-7.5-3.358-7.5-7.5s3.358-7.5 7.5-7.5h86.999c4.142 0 7.5 3.358 7.5 7.5s-3.358 7.5-7.5 7.5z"/></g></svg>